<svg width="50" height="94" viewBox="0 0 50 94" fill="none" xmlns="http://www.w3.org/2000/svg">
<path d="M48.6563 7.92542C49.0855 7.47697 49.4211 6.94944 49.6438 6.37295C49.8665 5.79647 49.9721 5.18231 49.9544 4.56556C49.9367 3.9488 49.7962 3.34152 49.5408 2.77838C49.2854 2.21525 48.9202 1.70729 48.466 1.28352C48.0118 0.859741 47.4775 0.528443 46.8937 0.308539C46.3098 0.0886355 45.6878 -0.0155683 45.0631 0.00187891C44.4384 0.0193261 43.8234 0.158082 43.253 0.410224C42.6826 0.662366 42.1682 1.02296 41.739 1.47141L1.30042 43.7466C0.465311 44.6187 0 45.7734 0 46.9736C0 48.1738 0.465311 49.3285 1.30042 50.2006L41.739 92.4805C42.1653 92.9388 42.6797 93.3088 43.2521 93.5692C43.8246 93.8295 44.4437 93.9749 45.0736 93.997C45.7035 94.0191 46.3315 93.9174 46.9212 93.6979C47.5109 93.4783 48.0506 93.1452 48.5088 92.718C48.9671 92.2907 49.3348 91.7779 49.5906 91.2091C49.8464 90.6404 49.9851 90.0272 49.9989 89.405C50.0126 88.7829 49.901 88.1643 49.6705 87.5851C49.44 87.0059 49.0953 86.4777 48.6563 86.0312L11.3006 46.9736L48.6563 7.92542Z" fill="#DEC805"/>
</svg>
