<svg width="50" height="94" viewBox="0 0 50 94" fill="none" xmlns="http://www.w3.org/2000/svg">
<path d="M1.34367 7.92542C0.914455 7.47697 0.578911 6.94944 0.356186 6.37295C0.133465 5.79647 0.0279198 5.18231 0.0455933 4.56556C0.0632629 3.9488 0.2038 3.34152 0.459175 2.77838C0.71455 2.21525 1.07976 1.70729 1.53396 1.28352C1.98816 0.859741 2.52246 0.528443 3.10634 0.308539C3.69022 0.0886355 4.31224 -0.0155683 4.93691 0.00187891C5.56158 0.0193261 6.17665 0.158082 6.747 0.410224C7.31736 0.662366 7.83183 1.02296 8.26104 1.47141L48.6996 43.7466C49.5347 44.6187 50 45.7734 50 46.9736C50 48.1738 49.5347 49.3285 48.6996 50.2006L8.26104 92.4805C7.83466 92.9388 7.3203 93.3088 6.74785 93.5692C6.1754 93.8295 5.55626 93.9749 4.9264 93.997C4.29654 94.0191 3.6685 93.9174 3.07878 93.6979C2.48906 93.4783 1.9494 93.1452 1.49116 92.718C1.03292 92.2907 0.665222 91.7779 0.409428 91.2091C0.153637 90.6404 0.0148506 90.0272 0.00112915 89.405C-0.0125961 88.7829 0.0990181 88.1643 0.329491 87.5851C0.559963 87.0059 0.904694 86.4777 1.34367 86.0312L38.6994 46.9736L1.34367 7.92542Z" fill="#DEC805"/>
</svg>
