<svg width="81" height="81" viewBox="0 0 81 81" fill="none" xmlns="http://www.w3.org/2000/svg">
<rect width="81" height="81" rx="40.5" fill="#DEC805"/>
<path d="M40.5 13.77C44.6891 13.77 48.7066 15.5408 51.6687 18.6928C54.6309 21.8448 56.295 26.1199 56.295 30.5775C56.295 35.0351 54.6309 39.3102 51.6687 42.4622C48.7066 45.6142 44.6891 47.385 40.5 47.385C36.3109 47.385 32.2934 45.6142 29.3312 42.4622C26.3691 39.3102 24.705 35.0351 24.705 30.5775C24.705 26.1199 26.3691 21.8448 29.3312 18.6928C32.2934 15.5408 36.3109 13.77 40.5 13.77ZM40.5 55.7887C57.9534 55.7887 72.09 63.3101 72.09 72.5963V81H8.90997V72.5963C8.90997 63.3101 23.0465 55.7887 40.5 55.7887Z" fill="black"/>
</svg>
